<?xml version="1.0" encoding="iso-8859-1"?>
<!-- Generator: Adobe Illustrator 19.0.0, SVG Export Plug-In . SVG Version: 6.00 Build 0)  -->
<svg version="1.1" id="Capa_1" xmlns="http://www.w3.org/2000/svg" xmlns:xlink="http://www.w3.org/1999/xlink" x="0px" y="0px"
	 viewBox="0 0 512.009 512.009" style="enable-background:new 0 0 512.009 512.009;" xml:space="preserve">
<path style="fill:#D1EEFF;" d="M346.689,190.949c-22.5-22.2-58.6-22.2-81.1,0l-18.3,18.3l-17.3-17.3c-22.5-22.2-58.6-22.2-81.1,0
	l0,0c-22.2,22.5-22.2,58.6,0,81.1l98.4,94.5l99.3-94.5C368.889,250.249,368.889,213.849,346.689,190.949z"/>
<g>
	<path style="fill:#1AA8FF;" d="M249.789,381.149c-3.1,0-6.2-1.2-8.4-3.4l-98.4-94.5c-29.3-24.7-33-68.6-8.3-97.9s68.6-33,97.9-8.3
		c2.8,2.4,5.5,5,7.9,7.8l8.8,8.8l9.8-9.8c27.2-27.1,71.1-27.1,98.2,0l0,0c26.8,27.6,26.8,71.5,0,99.1l-99.2,94.6
		C255.889,379.849,252.889,381.049,249.789,381.149z M187.089,186.549c-24.8-0.1-42.7,19.2-42.8,44c0,12,7.1,26.8,15.6,35.2
		l89.8,86.3l90.9-86.4c17.4-18,17.4-46.6,0-64.6c-17.7-17.2-45.9-17.2-63.6,0l-18.8,18c-2.3,2.3-5.4,3.6-8.7,3.5l0,0
		c-3.2,0-6.4-1.3-8.7-3.5c0,0-13-12.8-17.3-17.1C215.189,193.749,199.089,186.549,187.089,186.549z"/>
	<path style="fill:#1AA8FF;" d="M249.389,511.649h-225c-6.7,0-12.2-5.5-12.2-12.2c0-2.2,0.6-4.3,1.7-6.2l23.8-40.3
		c11.7-19.3,11.7-43.6,0-62.9l0,0c-73.8-120.6-35.9-278.2,84.7-352s278.2-35.9,352,84.7c25.2,41.1,38.2,88.5,37.6,136.7
		C509.889,398.549,392.189,511.649,249.389,511.649z M45.689,487.349h203.7c129.5,0,236.4-102.4,238.2-228.2
		c0.9-65.2-25.6-127.7-73.1-172.4c-47.5-44.9-111.9-67.4-177.1-61.9c-127.6,10.1-222.7,121.7-212.6,249.2
		c2.9,36.7,14.6,72.2,33.9,103.5l0,0c16.3,27.1,16.3,61,0,88.1L45.689,487.349z"/>
</g>
<g>
</g>
<g>
</g>
<g>
</g>
<g>
</g>
<g>
</g>
<g>
</g>
<g>
</g>
<g>
</g>
<g>
</g>
<g>
</g>
<g>
</g>
<g>
</g>
<g>
</g>
<g>
</g>
<g>
</g>
</svg>
